<svg xmlns="http://www.w3.org/2000/svg" xmlns:xlink="http://www.w3.org/1999/xlink" width="40" zoomAndPan="magnify" viewBox="0 0 30 30.000001" height="40" preserveAspectRatio="xMidYMid meet" version="1.0"><defs><clipPath id="5a6631ced7"><path d="M 1.742188 16 L 28.316406 16 L 28.316406 26.765625 L 1.742188 26.765625 Z M 1.742188 16 " clip-rule="nonzero"/></clipPath><clipPath id="50f3b49925"><path d="M 3.105469 16 L 26.882812 16 C 27.636719 16 28.246094 16.609375 28.246094 17.363281 L 28.246094 25.308594 C 28.246094 26.0625 27.636719 26.671875 26.882812 26.671875 L 3.105469 26.671875 C 2.351562 26.671875 1.742188 26.0625 1.742188 25.308594 L 1.742188 17.363281 C 1.742188 16.609375 2.351562 16 3.105469 16 Z M 3.105469 16 " clip-rule="nonzero"/></clipPath><clipPath id="24a4cbb073"><path d="M 3.394531 20 L 7 20 L 7 23 L 3.394531 23 Z M 3.394531 20 " clip-rule="nonzero"/></clipPath><clipPath id="8ed87dda92"><path d="M 5 17.863281 L 9 17.863281 L 9 21 L 5 21 Z M 5 17.863281 " clip-rule="nonzero"/></clipPath><clipPath id="1a1b748fcf"><path d="M 7 20 L 10.652344 20 L 10.652344 23 L 7 23 Z M 7 20 " clip-rule="nonzero"/></clipPath><clipPath id="9fa7ca2440"><path d="M 15.617188 20.789062 L 18.371094 20.789062 L 18.371094 21.890625 L 15.617188 21.890625 Z M 15.617188 20.789062 " clip-rule="nonzero"/></clipPath><clipPath id="30a40c7228"><path d="M 16.167969 20.789062 L 17.820312 20.789062 C 17.964844 20.789062 18.105469 20.847656 18.210938 20.949219 C 18.3125 21.054688 18.371094 21.195312 18.371094 21.339844 C 18.371094 21.488281 18.3125 21.625 18.210938 21.730469 C 18.105469 21.832031 17.964844 21.890625 17.820312 21.890625 L 16.167969 21.890625 C 16.019531 21.890625 15.878906 21.832031 15.777344 21.730469 C 15.675781 21.625 15.617188 21.488281 15.617188 21.339844 C 15.617188 21.195312 15.675781 21.054688 15.777344 20.949219 C 15.878906 20.847656 16.019531 20.789062 16.167969 20.789062 Z M 16.167969 20.789062 " clip-rule="nonzero"/></clipPath><clipPath id="4ed75f0fc6"><path d="M 0.617188 0.789062 L 3.371094 0.789062 L 3.371094 1.890625 L 0.617188 1.890625 Z M 0.617188 0.789062 " clip-rule="nonzero"/></clipPath><clipPath id="ccd2d40275"><path d="M 1.167969 0.789062 L 2.820312 0.789062 C 2.964844 0.789062 3.105469 0.847656 3.210938 0.949219 C 3.3125 1.054688 3.371094 1.195312 3.371094 1.339844 C 3.371094 1.488281 3.3125 1.625 3.210938 1.730469 C 3.105469 1.832031 2.964844 1.890625 2.820312 1.890625 L 1.167969 1.890625 C 1.019531 1.890625 0.878906 1.832031 0.777344 1.730469 C 0.675781 1.625 0.617188 1.488281 0.617188 1.339844 C 0.617188 1.195312 0.675781 1.054688 0.777344 0.949219 C 0.878906 0.847656 1.019531 0.789062 1.167969 0.789062 Z M 1.167969 0.789062 " clip-rule="nonzero"/></clipPath><clipPath id="0a63380c34"><rect x="0" width="4" y="0" height="2"/></clipPath><clipPath id="e74f9e23c5"><path d="M 11.882812 20.789062 L 14.636719 20.789062 L 14.636719 21.890625 L 11.882812 21.890625 Z M 11.882812 20.789062 " clip-rule="nonzero"/></clipPath><clipPath id="abe7fea62e"><path d="M 12.433594 20.789062 L 14.085938 20.789062 C 14.230469 20.789062 14.371094 20.847656 14.476562 20.949219 C 14.578125 21.054688 14.636719 21.195312 14.636719 21.339844 C 14.636719 21.488281 14.578125 21.625 14.476562 21.730469 C 14.371094 21.832031 14.230469 21.890625 14.085938 21.890625 L 12.433594 21.890625 C 12.285156 21.890625 12.144531 21.832031 12.042969 21.730469 C 11.9375 21.625 11.882812 21.488281 11.882812 21.339844 C 11.882812 21.195312 11.9375 21.054688 12.042969 20.949219 C 12.144531 20.847656 12.285156 20.789062 12.433594 20.789062 Z M 12.433594 20.789062 " clip-rule="nonzero"/></clipPath><clipPath id="662a88399d"><path d="M 0.882812 0.789062 L 3.636719 0.789062 L 3.636719 1.890625 L 0.882812 1.890625 Z M 0.882812 0.789062 " clip-rule="nonzero"/></clipPath><clipPath id="0e11f2c015"><path d="M 1.433594 0.789062 L 3.085938 0.789062 C 3.230469 0.789062 3.371094 0.847656 3.476562 0.949219 C 3.578125 1.054688 3.636719 1.195312 3.636719 1.339844 C 3.636719 1.488281 3.578125 1.625 3.476562 1.730469 C 3.371094 1.832031 3.230469 1.890625 3.085938 1.890625 L 1.433594 1.890625 C 1.285156 1.890625 1.144531 1.832031 1.042969 1.730469 C 0.9375 1.625 0.882812 1.488281 0.882812 1.339844 C 0.882812 1.195312 0.9375 1.054688 1.042969 0.949219 C 1.144531 0.847656 1.285156 0.789062 1.433594 0.789062 Z M 1.433594 0.789062 " clip-rule="nonzero"/></clipPath><clipPath id="0b437d369a"><rect x="0" width="4" y="0" height="2"/></clipPath><clipPath id="428066235b"><path d="M 19.835938 17.949219 L 26.367188 17.949219 L 26.367188 24.484375 L 19.835938 24.484375 Z M 19.835938 17.949219 " clip-rule="nonzero"/></clipPath><clipPath id="4936ee68be"><path d="M 23.21875 17.949219 C 21.351562 17.949219 19.835938 19.464844 19.835938 21.335938 C 19.835938 23.207031 21.351562 24.722656 23.21875 24.722656 C 25.089844 24.722656 26.605469 23.207031 26.605469 21.335938 C 26.605469 19.464844 25.089844 17.949219 23.21875 17.949219 Z M 23.21875 17.949219 " clip-rule="nonzero"/></clipPath><clipPath id="5fc07ef953"><path d="M 13 0.96875 L 17 0.96875 L 17 5 L 13 5 Z M 13 0.96875 " clip-rule="nonzero"/></clipPath><clipPath id="777ac1d259"><path d="M 6.871094 4 L 10 4 L 10 8 L 6.871094 8 Z M 6.871094 4 " clip-rule="nonzero"/></clipPath><clipPath id="ffa294e6a8"><path d="M 19 4 L 22.113281 4 L 22.113281 8 L 19 8 Z M 19 4 " clip-rule="nonzero"/></clipPath><clipPath id="b5e7af8281"><path d="M 6.871094 8 L 22.113281 8 L 22.113281 14.757812 L 6.871094 14.757812 Z M 6.871094 8 " clip-rule="nonzero"/></clipPath></defs><g clip-path="url(#5a6631ced7)"><g clip-path="url(#50f3b49925)"><path stroke-linecap="butt" transform="matrix(0.725806, 0, 0, 0.725806, 1.737188, 16.000354)" fill="none" stroke-linejoin="miter" d="M 1.885187 -0.000487319 L 34.645085 -0.000487319 C 35.683801 -0.000487319 36.523384 0.839096 36.523384 1.877811 L 36.523384 12.824687 C 36.523384 13.863403 35.683801 14.702986 34.645085 14.702986 L 1.885187 14.702986 C 0.846472 14.702986 0.00688834 13.863403 0.00688834 12.824687 L 0.00688834 1.877811 C 0.00688834 0.839096 0.846472 -0.000487319 1.885187 -0.000487319 Z M 1.885187 -0.000487319 " stroke="#ff751f" stroke-width="2" stroke-opacity="1" stroke-miterlimit="4"/></g></g><g clip-path="url(#24a4cbb073)"><path fill="#ff751f" d="M 6.460938 21.339844 L 5.300781 20.179688 L 3.683594 20.179688 C 3.527344 20.179688 3.394531 20.3125 3.394531 20.46875 L 3.394531 22.207031 C 3.394531 22.367188 3.527344 22.496094 3.683594 22.496094 L 5.300781 22.496094 Z M 6.460938 21.339844 " fill-opacity="1" fill-rule="nonzero"/></g><g clip-path="url(#8ed87dda92)"><path fill="#ff751f" d="M 6.871094 20.929688 L 8.03125 19.769531 L 8.03125 18.152344 C 8.03125 17.992188 7.898438 17.863281 7.738281 17.863281 L 6.003906 17.863281 C 5.84375 17.863281 5.710938 17.992188 5.710938 18.152344 L 5.710938 19.769531 Z M 6.871094 20.929688 " fill-opacity="1" fill-rule="nonzero"/></g><g clip-path="url(#1a1b748fcf)"><path fill="#ff751f" d="M 10.058594 20.179688 L 8.4375 20.179688 L 7.28125 21.339844 L 8.4375 22.496094 L 10.058594 22.496094 C 10.214844 22.496094 10.347656 22.367188 10.347656 22.207031 L 10.347656 20.46875 C 10.347656 20.3125 10.214844 20.179688 10.058594 20.179688 Z M 10.058594 20.179688 " fill-opacity="1" fill-rule="nonzero"/></g><path fill="#ff751f" d="M 6.871094 21.75 L 5.710938 22.90625 L 5.710938 24.527344 C 5.710938 24.683594 5.84375 24.816406 6.003906 24.816406 L 7.738281 24.816406 C 7.898438 24.816406 8.03125 24.683594 8.03125 24.527344 L 8.03125 22.90625 Z M 6.871094 21.75 " fill-opacity="1" fill-rule="nonzero"/><g clip-path="url(#9fa7ca2440)"><g clip-path="url(#30a40c7228)"><g transform="matrix(1, 0, 0, 1, 15, 20)"><g clip-path="url(#0a63380c34)"><g clip-path="url(#4ed75f0fc6)"><g clip-path="url(#ccd2d40275)"><path fill="#ff751f" d="M 0.617188 0.789062 L 3.371094 0.789062 L 3.371094 1.890625 L 0.617188 1.890625 Z M 0.617188 0.789062 " fill-opacity="1" fill-rule="nonzero"/></g></g></g></g></g></g><g clip-path="url(#e74f9e23c5)"><g clip-path="url(#abe7fea62e)"><g transform="matrix(1, 0, 0, 1, 11, 20)"><g clip-path="url(#0b437d369a)"><g clip-path="url(#662a88399d)"><g clip-path="url(#0e11f2c015)"><path fill="#ff751f" d="M 0.882812 0.789062 L 3.636719 0.789062 L 3.636719 1.890625 L 0.882812 1.890625 Z M 0.882812 0.789062 " fill-opacity="1" fill-rule="nonzero"/></g></g></g></g></g></g><g clip-path="url(#428066235b)"><g clip-path="url(#4936ee68be)"><path stroke-linecap="butt" transform="matrix(0.725806, 0, 0, 0.725806, 19.83411, 17.950905)" fill="none" stroke-linejoin="miter" d="M 4.663282 -0.00232358 C 2.090713 -0.00232358 0.00251851 2.085871 0.00251851 4.663822 C 0.00251851 7.241774 2.090713 9.329968 4.663282 9.329968 C 7.241234 9.329968 9.329428 7.241774 9.329428 4.663822 C 9.329428 2.085871 7.241234 -0.00232358 4.663282 -0.00232358 Z M 4.663282 -0.00232358 " stroke="#ff751f" stroke-width="4" stroke-opacity="1" stroke-miterlimit="4"/></g></g><g clip-path="url(#5fc07ef953)"><path fill="#ff751f" d="M 13.644531 2.949219 L 13.523438 3.6875 C 13.503906 3.804688 13.554688 3.921875 13.652344 3.988281 C 13.746094 4.054688 13.875 4.0625 13.976562 4.007812 L 14.589844 3.667969 L 15.199219 4.007812 C 15.246094 4.03125 15.296875 4.042969 15.351562 4.042969 C 15.410156 4.042969 15.472656 4.027344 15.527344 3.988281 C 15.625 3.921875 15.671875 3.804688 15.652344 3.6875 L 15.535156 2.949219 L 16.039062 2.429688 C 16.121094 2.347656 16.148438 2.226562 16.113281 2.117188 C 16.074219 2.007812 15.980469 1.929688 15.867188 1.910156 L 15.179688 1.804688 L 14.867188 1.144531 C 14.816406 1.035156 14.707031 0.96875 14.589844 0.96875 C 14.46875 0.96875 14.359375 1.035156 14.308594 1.144531 L 14 1.804688 L 13.3125 1.910156 C 13.199219 1.929688 13.101562 2.007812 13.066406 2.117188 C 13.03125 2.226562 13.058594 2.347656 13.136719 2.429688 Z M 13.644531 2.949219 " fill-opacity="1" fill-rule="nonzero"/></g><path fill="#ff751f" d="M 10.234375 4.640625 L 10.921875 4.746094 L 11.234375 5.40625 C 11.285156 5.515625 11.390625 5.582031 11.511719 5.582031 C 11.628906 5.582031 11.738281 5.515625 11.789062 5.40625 L 12.101562 4.746094 L 12.789062 4.640625 C 12.902344 4.621094 12.996094 4.542969 13.035156 4.433594 C 13.070312 4.324219 13.042969 4.203125 12.960938 4.121094 L 12.457031 3.601562 L 12.574219 2.863281 C 12.59375 2.746094 12.546875 2.628906 12.449219 2.5625 C 12.351562 2.492188 12.226562 2.488281 12.125 2.542969 L 11.511719 2.882812 L 10.898438 2.542969 C 10.796875 2.488281 10.671875 2.492188 10.574219 2.5625 C 10.476562 2.628906 10.429688 2.746094 10.445312 2.863281 L 10.566406 3.601562 L 10.058594 4.121094 C 9.980469 4.203125 9.953125 4.324219 9.988281 4.433594 C 10.023438 4.542969 10.121094 4.621094 10.234375 4.640625 Z M 10.234375 4.640625 " fill-opacity="1" fill-rule="nonzero"/><g clip-path="url(#777ac1d259)"><path fill="#ff751f" d="M 7.15625 6.792969 L 7.84375 6.898438 L 8.15625 7.558594 C 8.207031 7.667969 8.316406 7.738281 8.433594 7.738281 C 8.554688 7.738281 8.660156 7.667969 8.710938 7.558594 L 9.023438 6.898438 L 9.710938 6.792969 C 9.824219 6.777344 9.921875 6.695312 9.957031 6.585938 C 9.992188 6.476562 9.964844 6.355469 9.886719 6.273438 L 9.378906 5.753906 L 9.5 5.015625 C 9.519531 4.902344 9.46875 4.785156 9.371094 4.714844 C 9.273438 4.648438 9.148438 4.640625 9.046875 4.699219 L 8.433594 5.035156 L 7.820312 4.699219 C 7.71875 4.640625 7.59375 4.648438 7.496094 4.714844 C 7.398438 4.785156 7.351562 4.902344 7.371094 5.015625 L 7.488281 5.753906 L 6.984375 6.273438 C 6.902344 6.355469 6.875 6.476562 6.910156 6.585938 C 6.949219 6.695312 7.042969 6.777344 7.15625 6.792969 Z M 7.15625 6.792969 " fill-opacity="1" fill-rule="nonzero"/></g><path fill="#ff751f" d="M 16.390625 4.640625 L 17.078125 4.746094 L 17.386719 5.40625 C 17.4375 5.515625 17.546875 5.582031 17.667969 5.582031 C 17.785156 5.582031 17.894531 5.515625 17.945312 5.40625 L 18.253906 4.746094 L 18.945312 4.640625 C 19.058594 4.621094 19.152344 4.542969 19.1875 4.433594 C 19.226562 4.324219 19.199219 4.203125 19.117188 4.121094 L 18.609375 3.601562 L 18.730469 2.863281 C 18.75 2.746094 18.699219 2.628906 18.605469 2.5625 C 18.507812 2.492188 18.382812 2.488281 18.277344 2.542969 L 17.667969 2.882812 L 17.054688 2.542969 C 16.953125 2.488281 16.824219 2.492188 16.726562 2.5625 C 16.632812 2.628906 16.582031 2.746094 16.601562 2.863281 L 16.722656 3.601562 L 16.214844 4.121094 C 16.132812 4.203125 16.105469 4.324219 16.144531 4.433594 C 16.179688 4.542969 16.273438 4.621094 16.390625 4.640625 Z M 16.390625 4.640625 " fill-opacity="1" fill-rule="nonzero"/><g clip-path="url(#ffa294e6a8)"><path fill="#ff751f" d="M 19.464844 6.792969 L 20.15625 6.898438 L 20.464844 7.558594 C 20.515625 7.667969 20.625 7.738281 20.742188 7.738281 C 20.863281 7.738281 20.972656 7.667969 21.023438 7.558594 L 21.332031 6.898438 L 22.023438 6.792969 C 22.136719 6.777344 22.230469 6.695312 22.265625 6.585938 C 22.304688 6.476562 22.277344 6.355469 22.195312 6.273438 L 21.6875 5.753906 L 21.808594 5.015625 C 21.828125 4.902344 21.777344 4.785156 21.683594 4.714844 C 21.585938 4.648438 21.460938 4.640625 21.355469 4.699219 L 20.742188 5.035156 L 20.132812 4.699219 C 20.027344 4.640625 19.902344 4.648438 19.804688 4.714844 C 19.710938 4.785156 19.660156 4.902344 19.679688 5.015625 L 19.800781 5.753906 L 19.292969 6.273438 C 19.210938 6.355469 19.183594 6.476562 19.222656 6.585938 C 19.257812 6.695312 19.351562 6.777344 19.464844 6.792969 Z M 19.464844 6.792969 " fill-opacity="1" fill-rule="nonzero"/></g><path fill="#ff751f" d="M 12.742188 10.816406 C 12.234375 10.816406 11.820312 11.230469 11.820312 11.738281 C 11.820312 12.246094 12.234375 12.660156 12.742188 12.660156 C 13.25 12.660156 13.664062 12.246094 13.664062 11.738281 C 13.664062 11.230469 13.25 10.816406 12.742188 10.816406 Z M 12.742188 10.816406 " fill-opacity="1" fill-rule="nonzero"/><path fill="#ff751f" d="M 9.664062 10.816406 C 9.15625 10.816406 8.742188 11.230469 8.742188 11.738281 C 8.742188 12.246094 9.15625 12.660156 9.664062 12.660156 L 11.519531 12.660156 C 11.324219 12.402344 11.203125 12.085938 11.203125 11.738281 C 11.203125 11.390625 11.324219 11.074219 11.519531 10.816406 Z M 9.664062 10.816406 " fill-opacity="1" fill-rule="nonzero"/><g clip-path="url(#b5e7af8281)"><path fill="#ff751f" d="M 19.511719 8.96875 L 9.664062 8.96875 C 8.136719 8.96875 6.894531 10.210938 6.894531 11.738281 C 6.894531 13.265625 8.136719 14.507812 9.664062 14.507812 L 19.511719 14.507812 C 21.039062 14.507812 22.28125 13.265625 22.28125 11.738281 C 22.28125 10.210938 21.039062 8.96875 19.511719 8.96875 Z M 19.511719 13.277344 L 9.664062 13.277344 C 8.816406 13.277344 8.125 12.585938 8.125 11.738281 C 8.125 10.890625 8.816406 10.199219 9.664062 10.199219 L 19.511719 10.199219 C 20.363281 10.199219 21.050781 10.890625 21.050781 11.738281 C 21.050781 12.585938 20.363281 13.277344 19.511719 13.277344 Z M 19.511719 13.277344 " fill-opacity="1" fill-rule="nonzero"/></g><path fill="#ff751f" d="M 19.511719 10.816406 L 13.964844 10.816406 C 14.160156 11.074219 14.28125 11.390625 14.28125 11.738281 C 14.28125 12.085938 14.160156 12.402344 13.964844 12.660156 L 19.511719 12.660156 C 20.023438 12.660156 20.4375 12.246094 20.4375 11.738281 C 20.4375 11.230469 20.023438 10.816406 19.511719 10.816406 Z M 19.511719 10.816406 " fill-opacity="1" fill-rule="nonzero"/><path fill="#ff751f" d="M 15.203125 5.277344 C 15.035156 5.277344 14.898438 5.414062 14.898438 5.582031 L 14.898438 8.046875 C 14.898438 8.214844 15.035156 8.351562 15.203125 8.351562 C 15.375 8.351562 15.511719 8.214844 15.511719 8.046875 L 15.511719 7.121094 L 15.820312 7.121094 C 16.328125 7.121094 16.742188 6.707031 16.742188 6.199219 C 16.742188 5.691406 16.328125 5.277344 15.820312 5.277344 Z M 16.128906 6.199219 C 16.128906 6.367188 15.988281 6.507812 15.820312 6.507812 L 15.511719 6.507812 L 15.511719 5.890625 L 15.820312 5.890625 C 15.988281 5.890625 16.128906 6.027344 16.128906 6.199219 Z M 16.128906 6.199219 " fill-opacity="1" fill-rule="nonzero"/><path fill="#ff751f" d="M 14.441406 5.320312 C 14.292969 5.230469 14.105469 5.277344 14.019531 5.425781 L 13.539062 6.21875 L 13.058594 5.425781 C 12.972656 5.277344 12.78125 5.230469 12.636719 5.320312 C 12.492188 5.40625 12.445312 5.597656 12.53125 5.742188 L 13.179688 6.8125 L 12.53125 7.886719 C 12.445312 8.03125 12.492188 8.222656 12.636719 8.308594 C 12.6875 8.339844 12.742188 8.351562 12.796875 8.351562 C 12.898438 8.351562 13 8.300781 13.058594 8.203125 L 13.539062 7.410156 L 14.019531 8.203125 C 14.074219 8.300781 14.175781 8.351562 14.28125 8.351562 C 14.335938 8.351562 14.390625 8.339844 14.441406 8.308594 C 14.585938 8.222656 14.632812 8.03125 14.542969 7.886719 L 13.898438 6.8125 L 14.542969 5.742188 C 14.632812 5.597656 14.585938 5.40625 14.441406 5.320312 Z M 14.441406 5.320312 " fill-opacity="1" fill-rule="nonzero"/></svg>